<?xml version="1.0" standalone="no"?>
<svg xmlns="http://www.w3.org/2000/svg" width="1034" height="1002" viewBox="0 0 1048.241 1015.802">
<path transform="translate(524.1205,540.3325)" style="fill:#EF9BA0;stroke:#EF9BA0;stroke-width:0.381" d="M-170.469-218.064C-197.383-243.673-235.219-267.95-276.134-281.244-392.906-319.186-481.179-257.313-510.853-165.986-540.526-74.6582-505.48,27.2822-388.708,65.2236-347.793,78.5186-302.913,81.1172-266.087,76.2188L-210.357,68.3496-260.069,94.7393C-292.741,112.423-327.521,140.905-352.809,175.71-424.979,275.042-393.412,378.113-315.725,434.557-238.036,491.001-130.255,489.171-58.0859,389.839-32.7988,355.034-16.459,313.154-9.7373,276.617L0,221.183 9.7373,276.617C16.459,313.154,32.7988,355.034,58.0859,389.839 130.255,489.171,238.036,491.001,315.725,434.557 393.412,378.113,424.979,275.042,352.809,175.71 327.521,140.905,292.741,112.423,260.069,94.7393L210.357,68.3496 266.087,76.2188C302.913,81.1172,347.793,78.5186,388.708,65.2236 505.48,27.2822,540.526-74.6582,510.853-165.986 481.179-257.313,392.906-319.186,276.134-281.244 235.219-267.95,197.383-243.673,170.469-218.064L130.009-178.941 154.714-229.511C170.752-263.021,182.149-306.507,182.149-349.528 182.149-472.31,96.0277-537.142,0-537.142-96.0277-537.142-182.149-472.31-182.149-349.528-182.149-306.507-170.752-263.021-154.714-229.511-154.714-229.511-130.008-178.941-130.009-178.941Z
M-330.66,33.3428C-421.72,3.75488-452.162-71.9609-430.134-139.759-408.104-207.557-338.972-250.919-247.911-221.332-195.416-204.274-147.764-166.845-110.797-120.714-119.266-112.883-125.531-105.909-131.249-98.5215-136.605-91.4443-140.618-85.0234-144.715-77.1377-189.749-88.3984-236.445-100.077-259.805-103.305-284.612-107.028-296.121-103.839-298.68-97.0469-300.603-90.0479-293.166-80.7031-270.907-69.1348-250.113-58.0146-205.47-40.0156-162.417-22.6553-163.738-13.8682-164.266-6.31445-164.092,2.55957-163.809,11.8965-162.839,21.2217-160.591,32.5352-217.611,48.127-278.164,50.3994-330.66,33.3428Z
M-70.4688,324.779C-126.747,402.24-208.164,407.795-265.837,365.894-323.51,323.992-343.386,244.843-287.107,167.383-254.664,122.728-204.34,88.9736-149.044,68.0713-144.214,78.5449-139.517,86.6602-134.258,94.3799-129.182,101.661-124.316,107.462-118.082,113.795-142.708,153.146-168.245,193.947-178.532,215.166-189.74,237.608-190.263,249.54-184.594,254.072-178.532,258.063-167.347,253.879-149.466,236.284-132.465,219.943-101.551,183.048-71.7363,147.467-63.7871,151.439-56.7666,154.274-48.2725,156.852-39.3057,159.468-30.1367,161.427-18.6826,162.785-21.4746,221.833-38.0254,280.124-70.4688,324.779Z
M287.107,167.383C343.386,244.843,323.51,323.992,265.837,365.894 208.164,407.795,126.747,402.24,70.4688,324.779 38.0254,280.124,21.4746,221.833,18.6826,162.785 30.1367,161.427,39.3057,159.468,48.2725,156.852 56.7666,154.274,63.7871,151.439,71.7363,147.467 101.551,183.048,132.465,219.943,149.466,236.284 167.347,253.879,178.532,258.063,184.594,254.072 190.263,249.54,189.74,237.608,178.532,215.166 168.245,193.947,142.708,153.146,118.082,113.795 124.316,107.462,129.182,101.661,134.258,94.3799 139.517,86.6602,144.214,78.5449,149.044,68.0713 204.34,88.9736,254.664,122.728,287.107,167.383Z
M247.911-221.332C338.972-250.919,408.104-207.557,430.134-139.759 452.162-71.9609,421.72,3.75488,330.66,33.3428 278.164,50.3994,217.611,48.127,160.591,32.5352 162.839,21.2217,163.809,11.8965,164.092,2.55957 164.266-6.31445,163.738-13.8682,162.417-22.6553 205.47-40.0156,250.113-58.0146,270.907-69.1348 293.166-80.7031,300.602-90.0479,298.68-97.0469 296.121-103.839,284.612-107.028,259.805-103.305 236.445-100.077,189.749-88.3984,144.715-77.1377 140.618-85.0234,136.605-91.4443,131.249-98.5215 125.531-105.909,119.266-112.883,110.797-120.714 147.764-166.845,195.416-204.274,247.911-221.332Z
M-133.89-304.173C-133.89-399.919-71.2873-452.269,0-452.269 71.2873-452.269,133.89-399.919,133.89-304.173 133.89-248.976,113.017-192.089,80.5678-142.677 70.5033-148.311,61.9341-152.115,53.1418-155.27 44.7555-158.177,37.409-160.01,28.6431-161.469 25.4364-207.779,22.1137-255.799,17.964-279.012 13.84-303.756,7.25011-313.716,0-314.05-7.25011-313.716-13.84-303.756-17.964-279.012-22.1137-255.799-25.4364-207.779-28.6431-161.469-37.409-160.01-44.7555-158.177-53.1418-155.27-61.9341-152.115-70.5033-148.311-80.5678-142.677-113.017-192.089-133.89-248.976-133.89-304.173Z"/></svg>